<svg width="123" height="82" viewBox="0 0 123 82" fill="none" xmlns="http://www.w3.org/2000/svg">
<path d="M49.6491 28.5116C49.3747 24.8228 50.1738 21.0034 52.3637 17.1061C65.4055 -6.10835 107.639 -3.23409 122.834 16.579C122.09 17.3818 121.295 18.1142 120.603 18.9873C109.771 6.81483 88.8729 0.998794 72.9663 7.74411C63.8388 11.6011 56.4861 18.8403 56.7699 26.915C71.104 23.9225 89.9868 21.8086 99.8699 31.4153C106.282 37.6051 106.924 47.2215 98.9525 52.5671C88.4195 59.6488 60.4172 54.3205 50.4664 32.7847C40.9859 35.4098 31.5065 39.3936 25.9397 42.7919C11.4257 51.4975 3.64615 66.0759 8.62765 80.7352C7.0638 81.0313 5.48845 81.3873 3.95362 81.8735C-9.82122 56.3682 22.3979 31.2122 49.6491 28.5116ZM84.8328 49.6671C100.567 50.9826 102.97 39.8342 96.3454 33.7324C87.2713 25.3716 63.0117 30.2361 57.6507 31.1986C61.1426 38.2622 67.4245 48.1973 84.8328 49.6671Z" fill="#FFEE00"/>
</svg>
