<svg width="97" height="32" viewBox="0 0 97 32" fill="none" xmlns="http://www.w3.org/2000/svg">
<rect x="0.664062" width="96.3359" height="31.0234" rx="4.89844" fill="#9ECDF6"/>
<path d="M34.9482 14.9538V17.9285C34.8478 18.0773 34.6878 18.2447 34.4683 18.4307C34.2488 18.6131 33.9455 18.773 33.5586 18.9107C33.1754 19.0446 32.6805 19.1116 32.0741 19.1116C31.5792 19.1116 31.1234 19.026 30.7067 18.8549C30.2938 18.68 29.9347 18.427 29.6296 18.0959C29.3283 17.761 29.0939 17.3555 28.9264 16.8793C28.7627 16.3993 28.6809 15.8561 28.6809 15.2496V14.619C28.6809 14.0125 28.7516 13.4712 28.8929 12.9949C29.038 12.5187 29.2501 12.115 29.5292 11.7839C29.8082 11.449 30.1505 11.196 30.5561 11.0249C30.9616 10.85 31.4267 10.7626 31.9513 10.7626C32.5726 10.7626 33.0916 10.8705 33.5084 11.0863C33.9288 11.2984 34.2562 11.5923 34.4906 11.9681C34.7287 12.3438 34.8813 12.7717 34.9482 13.2517H33.8711C33.8227 12.9577 33.726 12.6899 33.5809 12.448C33.4395 12.2062 33.2367 12.0127 32.9726 11.8676C32.7084 11.7188 32.368 11.6444 31.9513 11.6444C31.5755 11.6444 31.2499 11.7132 30.9746 11.8509C30.6993 11.9885 30.4723 12.1857 30.2938 12.4424C30.1152 12.6992 29.9812 13.0098 29.8919 13.3745C29.8064 13.7391 29.7636 14.1502 29.7636 14.6078V15.2496C29.7636 15.7184 29.8175 16.137 29.9254 16.5053C30.037 16.8737 30.1952 17.1881 30.3998 17.4485C30.6044 17.7052 30.8481 17.9006 31.1309 18.0345C31.4174 18.1684 31.7336 18.2354 32.0796 18.2354C32.4629 18.2354 32.7735 18.2038 33.0117 18.1405C33.2498 18.0736 33.4358 17.9954 33.5697 17.9061C33.7037 17.8131 33.806 17.7257 33.8767 17.6438V15.8245H31.9959V14.9538H34.9482ZM36.3044 16.0477V15.9193C36.3044 15.484 36.3676 15.0803 36.4941 14.7083C36.6206 14.3325 36.8029 14.007 37.0411 13.7316C37.2792 13.4526 37.5675 13.2368 37.9061 13.0842C38.2447 12.928 38.6242 12.8498 39.0446 12.8498C39.4688 12.8498 39.8501 12.928 40.1887 13.0842C40.531 13.2368 40.8212 13.4526 41.0593 13.7316C41.3012 14.007 41.4853 14.3325 41.6118 14.7083C41.7383 15.0803 41.8016 15.484 41.8016 15.9193V16.0477C41.8016 16.483 41.7383 16.8867 41.6118 17.2588C41.4853 17.6308 41.3012 17.9564 41.0593 18.2354C40.8212 18.5107 40.5328 18.7265 40.1943 18.8828C39.8594 19.0353 39.4799 19.1116 39.0558 19.1116C38.6316 19.1116 38.2503 19.0353 37.9117 18.8828C37.5731 18.7265 37.2829 18.5107 37.0411 18.2354C36.8029 17.9564 36.6206 17.6308 36.4941 17.2588C36.3676 16.8867 36.3044 16.483 36.3044 16.0477ZM37.3368 15.9193V16.0477C37.3368 16.3491 37.3722 16.6337 37.4429 16.9016C37.5136 17.1657 37.6196 17.4001 37.761 17.6048C37.9061 17.8094 38.0866 17.9713 38.3023 18.0903C38.5181 18.2057 38.7693 18.2633 39.0558 18.2633C39.3385 18.2633 39.586 18.2057 39.798 18.0903C40.0138 17.9713 40.1924 17.8094 40.3338 17.6048C40.4752 17.4001 40.5812 17.1657 40.6519 16.9016C40.7263 16.6337 40.7635 16.3491 40.7635 16.0477V15.9193C40.7635 15.6217 40.7263 15.3408 40.6519 15.0766C40.5812 14.8087 40.4733 14.5725 40.3282 14.3679C40.1868 14.1595 40.0082 13.9958 39.7924 13.8767C39.5804 13.7577 39.3311 13.6981 39.0446 13.6981C38.7618 13.6981 38.5126 13.7577 38.2968 13.8767C38.0847 13.9958 37.9061 14.1595 37.761 14.3679C37.6196 14.5725 37.5136 14.8087 37.4429 15.0766C37.3722 15.3408 37.3368 15.6217 37.3368 15.9193ZM42.8229 16.0477V15.9193C42.8229 15.484 42.8861 15.0803 43.0126 14.7083C43.1391 14.3325 43.3214 14.007 43.5596 13.7316C43.7977 13.4526 44.086 13.2368 44.4246 13.0842C44.7632 12.928 45.1427 12.8498 45.5631 12.8498C45.9872 12.8498 46.3686 12.928 46.7072 13.0842C47.0495 13.2368 47.3397 13.4526 47.5778 13.7316C47.8196 14.007 48.0038 14.3325 48.1303 14.7083C48.2568 15.0803 48.3201 15.484 48.3201 15.9193V16.0477C48.3201 16.483 48.2568 16.8867 48.1303 17.2588C48.0038 17.6308 47.8196 17.9564 47.5778 18.2354C47.3397 18.5107 47.0513 18.7265 46.7128 18.8828C46.3779 19.0353 45.9984 19.1116 45.5743 19.1116C45.1501 19.1116 44.7688 19.0353 44.4302 18.8828C44.0916 18.7265 43.8014 18.5107 43.5596 18.2354C43.3214 17.9564 43.1391 17.6308 43.0126 17.2588C42.8861 16.8867 42.8229 16.483 42.8229 16.0477ZM43.8553 15.9193V16.0477C43.8553 16.3491 43.8907 16.6337 43.9614 16.9016C44.0321 17.1657 44.1381 17.4001 44.2795 17.6048C44.4246 17.8094 44.605 17.9713 44.8208 18.0903C45.0366 18.2057 45.2878 18.2633 45.5743 18.2633C45.857 18.2633 46.1044 18.2057 46.3165 18.0903C46.5323 17.9713 46.7109 17.8094 46.8523 17.6048C46.9937 17.4001 47.0997 17.1657 47.1704 16.9016C47.2448 16.6337 47.282 16.3491 47.282 16.0477V15.9193C47.282 15.6217 47.2448 15.3408 47.1704 15.0766C47.0997 14.8087 46.9918 14.5725 46.8467 14.3679C46.7053 14.1595 46.5267 13.9958 46.3109 13.8767C46.0989 13.7577 45.8496 13.6981 45.5631 13.6981C45.2803 13.6981 45.0311 13.7577 44.8153 13.8767C44.6032 13.9958 44.4246 14.1595 44.2795 14.3679C44.1381 14.5725 44.0321 14.8087 43.9614 15.0766C43.8907 15.3408 43.8553 15.6217 43.8553 15.9193ZM53.527 12.9615H54.4646V18.8716C54.4646 19.4037 54.3567 19.8576 54.1409 20.2334C53.9252 20.6092 53.6238 20.8938 53.2368 21.0873C52.8536 21.2844 52.4109 21.383 51.9086 21.383C51.7002 21.383 51.4547 21.3496 51.1719 21.2826C50.8929 21.2193 50.6175 21.1096 50.3459 20.9533C50.078 20.8008 49.853 20.5943 49.6706 20.3338L50.212 19.7199C50.465 20.025 50.7292 20.2371 51.0045 20.3562C51.2835 20.4752 51.5588 20.5347 51.8305 20.5347C52.1579 20.5347 52.4406 20.4734 52.6787 20.3506C52.9169 20.2278 53.101 20.0455 53.2313 19.8036C53.3652 19.5655 53.4322 19.2716 53.4322 18.9219V14.2897L53.527 12.9615ZM49.3693 16.0477V15.9305C49.3693 15.4691 49.4232 15.0506 49.5311 14.6748C49.6427 14.2953 49.8009 13.9697 50.0055 13.6981C50.2139 13.4265 50.465 13.2182 50.7589 13.0731C51.0528 12.9243 51.384 12.8498 51.7523 12.8498C52.1318 12.8498 52.463 12.9168 52.7457 13.0508C53.0322 13.181 53.274 13.3726 53.4712 13.6256C53.6721 13.8749 53.8303 14.1762 53.9456 14.5297C54.061 14.8832 54.1409 15.2831 54.1856 15.7296V16.243C54.1447 16.6858 54.0647 17.0839 53.9456 17.4373C53.8303 17.7908 53.6721 18.0922 53.4712 18.3415C53.274 18.5907 53.0322 18.7823 52.7457 18.9163C52.4592 19.0465 52.1244 19.1116 51.7412 19.1116C51.3803 19.1116 51.0528 19.0353 50.7589 18.8828C50.4687 18.7303 50.2194 18.5163 50.0111 18.241C49.8027 17.9657 49.6427 17.642 49.5311 17.2699C49.4232 16.8941 49.3693 16.4867 49.3693 16.0477ZM50.4017 15.9305V16.0477C50.4017 16.3491 50.4315 16.6318 50.491 16.896C50.5543 17.1602 50.6492 17.3927 50.7757 17.5936C50.9059 17.7945 51.0714 17.9527 51.2724 18.068C51.4733 18.1796 51.7133 18.2354 51.9923 18.2354C52.3346 18.2354 52.6174 18.1629 52.8406 18.0178C53.0638 17.8727 53.2406 17.681 53.3708 17.4429C53.5047 17.2048 53.6089 16.9462 53.6833 16.6672V15.3222C53.6424 15.1176 53.5791 14.9204 53.4936 14.7306C53.4117 14.5371 53.3038 14.366 53.1699 14.2172C53.0396 14.0646 52.8778 13.9437 52.6843 13.8544C52.4909 13.7651 52.2639 13.7205 52.0035 13.7205C51.7207 13.7205 51.477 13.78 51.2724 13.8991C51.0714 14.0144 50.9059 14.1744 50.7757 14.379C50.6492 14.5799 50.5543 14.8143 50.491 15.0822C50.4315 15.3464 50.4017 15.6291 50.4017 15.9305ZM57.1546 10.4277V19H56.1166V10.4277H57.1546ZM61.318 19.1116C60.8976 19.1116 60.5162 19.0409 60.1739 18.8995C59.8353 18.7544 59.5433 18.5517 59.2977 18.2912C59.0559 18.0308 58.8698 17.722 58.7396 17.3648C58.6094 17.0076 58.5443 16.617 58.5443 16.1928V15.9584C58.5443 15.4673 58.6168 15.0301 58.7619 14.6469C58.907 14.26 59.1042 13.9325 59.3535 13.6647C59.6028 13.3968 59.8856 13.194 60.2018 13.0563C60.5181 12.9187 60.8455 12.8498 61.184 12.8498C61.6156 12.8498 61.9877 12.9243 62.3002 13.0731C62.6165 13.2219 62.8751 13.4303 63.076 13.6981C63.2769 13.9623 63.4257 14.2748 63.5224 14.6357C63.6192 14.9929 63.6675 15.3836 63.6675 15.8077V16.2709H59.1582V15.4282H62.6351V15.3501C62.6202 15.0822 62.5644 14.8218 62.4677 14.5688C62.3746 14.3158 62.2258 14.1074 62.0212 13.9437C61.8165 13.78 61.5375 13.6981 61.184 13.6981C60.9496 13.6981 60.7339 13.7484 60.5367 13.8488C60.3395 13.9456 60.1702 14.0907 60.0288 14.2841C59.8874 14.4776 59.7777 14.7139 59.6995 14.9929C59.6214 15.272 59.5823 15.5938 59.5823 15.9584V16.1928C59.5823 16.4793 59.6214 16.749 59.6995 17.002C59.7814 17.2513 59.8986 17.4708 60.0511 17.6606C60.2074 17.8503 60.3953 17.9992 60.6148 18.1071C60.838 18.215 61.091 18.2689 61.3738 18.2689C61.7384 18.2689 62.0472 18.1945 62.3002 18.0457C62.5532 17.8968 62.7746 17.6978 62.9644 17.4485L63.5894 17.9452C63.4592 18.1424 63.2936 18.3303 63.0927 18.5089C62.8918 18.6875 62.6444 18.8326 62.3505 18.9442C62.0602 19.0558 61.7161 19.1116 61.318 19.1116ZM70.8613 15.8133H68.6904V14.9371H70.8613C71.2818 14.9371 71.6222 14.8701 71.8826 14.7362C72.1431 14.6022 72.3328 14.4162 72.4519 14.1781C72.5747 13.94 72.6361 13.6684 72.6361 13.3633C72.6361 13.0842 72.5747 12.8219 72.4519 12.5764C72.3328 12.3308 72.1431 12.1336 71.8826 11.9848C71.6222 11.8323 71.2818 11.756 70.8613 11.756H68.9415V19H67.8644V10.8742H70.8613C71.4752 10.8742 71.9943 10.9802 72.4184 11.1923C72.8425 11.4044 73.1644 11.6983 73.3839 12.0741C73.6034 12.4462 73.7132 12.8722 73.7132 13.3521C73.7132 13.873 73.6034 14.3176 73.3839 14.686C73.1644 15.0543 72.8425 15.3352 72.4184 15.5287C71.9943 15.7184 71.4752 15.8133 70.8613 15.8133ZM76.0404 10.4277V19H75.0024V10.4277H76.0404ZM81.2585 17.9675V14.859C81.2585 14.6209 81.2102 14.4144 81.1134 14.2395C81.0204 14.0609 80.879 13.9232 80.6893 13.8265C80.4995 13.7298 80.2651 13.6814 79.9861 13.6814C79.7257 13.6814 79.4968 13.726 79.2997 13.8153C79.1062 13.9046 78.9536 14.0218 78.842 14.1669C78.7341 14.312 78.6802 14.4683 78.6802 14.6357H77.6477C77.6477 14.4199 77.7035 14.206 77.8151 13.9939C77.9268 13.7819 78.0867 13.5902 78.2951 13.4191C78.5072 13.2442 78.7602 13.1066 79.0541 13.0061C79.3517 12.9019 79.6829 12.8498 80.0475 12.8498C80.4865 12.8498 80.8735 12.9243 81.2083 13.0731C81.5469 13.2219 81.8111 13.447 82.0008 13.7484C82.1943 14.046 82.291 14.4199 82.291 14.8701V17.6829C82.291 17.8838 82.3078 18.0978 82.3412 18.3247C82.3784 18.5517 82.4324 18.747 82.5031 18.9107V19H81.426C81.3739 18.8809 81.333 18.7228 81.3032 18.5256C81.2734 18.3247 81.2585 18.1387 81.2585 17.9675ZM81.4371 15.3389L81.4483 16.0644H80.4047C80.1107 16.0644 79.8484 16.0886 79.6178 16.137C79.3871 16.1816 79.1936 16.2505 79.0373 16.3435C78.8811 16.4365 78.762 16.5537 78.6802 16.6951C78.5983 16.8327 78.5574 16.9946 78.5574 17.1806C78.5574 17.3704 78.6002 17.5434 78.6858 17.6996C78.7713 17.8559 78.8997 17.9806 79.0708 18.0736C79.2457 18.1629 79.4596 18.2075 79.7126 18.2075C80.0289 18.2075 80.3079 18.1405 80.5498 18.0066C80.7916 17.8727 80.9832 17.709 81.1246 17.5155C81.2697 17.322 81.3478 17.1341 81.359 16.9518L81.7999 17.4485C81.7739 17.6048 81.7032 17.7778 81.5878 17.9675C81.4725 18.1573 81.3181 18.3396 81.1246 18.5145C80.9349 18.6856 80.7079 18.8289 80.4437 18.9442C80.1833 19.0558 79.8894 19.1116 79.562 19.1116C79.1527 19.1116 78.7937 19.0316 78.4848 18.8716C78.1798 18.7117 77.9416 18.4977 77.7705 18.2298C77.6031 17.9582 77.5193 17.655 77.5193 17.3201C77.5193 16.9965 77.5826 16.7118 77.7091 16.4663C77.8356 16.217 78.0179 16.0105 78.256 15.8468C78.4941 15.6794 78.7806 15.5529 79.1155 15.4673C79.4503 15.3817 79.8243 15.3389 80.2372 15.3389H81.4371ZM85.5224 18.3749L87.2022 12.9615H88.3072L85.8851 19.932C85.8293 20.0808 85.7549 20.2408 85.6619 20.412C85.5726 20.5868 85.4572 20.7524 85.3159 20.9087C85.1745 21.0649 85.0033 21.1914 84.8024 21.2882C84.6052 21.3886 84.369 21.4389 84.0936 21.4389C84.0118 21.4389 83.9076 21.4277 83.7811 21.4054C83.6546 21.383 83.5653 21.3644 83.5132 21.3496L83.5077 20.5124C83.5374 20.5161 83.5839 20.5199 83.6472 20.5236C83.7141 20.531 83.7607 20.5347 83.7867 20.5347C84.0211 20.5347 84.2201 20.5031 84.3839 20.4399C84.5476 20.3803 84.6852 20.278 84.7968 20.1329C84.9122 19.9915 85.0108 19.7962 85.0926 19.5469L85.5224 18.3749ZM84.289 12.9615L85.8572 17.6494L86.1251 18.7377L85.3828 19.1172L83.1616 12.9615H84.289Z" fill="#4097E3"/>
<mask id="mask0_6170_79047" style="mask-type:alpha" maskUnits="userSpaceOnUse" x="8" y="6" width="18" height="18">
<path d="M24.6314 14.4566C25.2056 14.7645 25.2056 15.5878 24.6314 15.8957L10.0311 23.723C9.48723 24.0146 8.82894 23.6206 8.82894 23.0035L8.82895 7.34879C8.82895 6.73169 9.48723 6.33769 10.0311 6.62926L24.6314 14.4566Z" fill="#4097E3"/>
</mask>
<g mask="url(#mask0_6170_79047)">
<path d="M24.6304 14.4566C25.2046 14.7645 25.2046 15.5878 24.6304 15.8957L10.0301 23.723C9.48625 24.0146 8.82797 23.6206 8.82797 23.0035L8.82797 7.34879C8.82797 6.73169 9.48625 6.33769 10.0301 6.62926L24.6304 14.4566Z" fill="#4097E3"/>
<path d="M9.64429 5.71484L17.5705 15.0858M17.5705 15.0858L21.074 19.2278L9.64429 25.3086L17.5705 15.0858ZM17.5705 15.0858L20.1215 11.7957" stroke="#9ECDF6" stroke-width="0.816406"/>
</g>
</svg>
