<svg width="97" height="32" viewBox="0 0 97 32" fill="none" xmlns="http://www.w3.org/2000/svg">
<rect width="96.3359" height="31.0234" rx="4.89844" fill="#9ECDF6"/>
<path fill-rule="evenodd" clip-rule="evenodd" d="M21.8575 6.38554C21.5767 8.15513 20.5249 9.32063 18.8319 9.73718C17.9947 9.94332 17.9723 9.91801 18.1639 8.97879C18.4239 7.70443 19.2396 6.64017 20.3943 6.0681C21.5201 5.51066 21.9803 5.61038 21.8575 6.38554ZM23.5437 10.4456C25.0656 11.1231 25.483 11.6541 24.8591 12.1179C22.8651 13.6002 22.8934 17.3443 24.9067 18.4009C25.6982 18.8163 25.6882 19.5015 24.8706 20.8387C23.238 23.509 22.175 23.9939 19.6063 23.2392C18.6627 22.962 18.1546 22.9888 16.9893 23.3782C15.1473 23.9936 14.3469 23.7115 13.0616 21.9935C11.4006 19.7732 10.8315 18.1798 10.7985 15.6546C10.7646 13.0547 11.2473 11.9492 12.9017 10.8377C14.0082 10.0943 15.366 9.98876 17.1339 10.5081C18.0672 10.7822 18.5697 10.7566 19.6579 10.3797C21.4557 9.7567 22.018 9.76615 23.5437 10.4456Z" fill="#4097E3"/>
<path d="M38.9513 12.5941L36.2613 20H35.1618L38.2592 11.8742H38.968L38.9513 12.5941ZM41.206 20L38.5104 12.5941L38.4936 11.8742H39.2024L42.311 20H41.206ZM41.0664 16.9919V17.8737H36.5013V16.9919H41.0664ZM44.2755 15.1223V22.3217H43.2374V13.9615H44.1862L44.2755 15.1223ZM48.3439 16.9305V17.0477C48.3439 17.4867 48.2918 17.8941 48.1877 18.2699C48.0835 18.642 47.931 18.9657 47.73 19.241C47.5328 19.5163 47.2891 19.7303 46.9989 19.8828C46.7087 20.0353 46.3757 20.1116 46 20.1116C45.6167 20.1116 45.2782 20.0484 44.9842 19.9219C44.6903 19.7954 44.441 19.6112 44.2364 19.3694C44.0318 19.1275 43.8681 18.8373 43.7453 18.4987C43.6262 18.1602 43.5444 17.7788 43.4997 17.3547V16.7296C43.5444 16.2831 43.6281 15.8832 43.7509 15.5297C43.8736 15.1762 44.0355 14.8749 44.2364 14.6256C44.441 14.3726 44.6884 14.181 44.9787 14.0508C45.2689 13.9168 45.6037 13.8498 45.9832 13.8498C46.3627 13.8498 46.6994 13.9243 46.9934 14.0731C47.2873 14.2182 47.5347 14.4265 47.7356 14.6981C47.9365 14.9697 48.0872 15.2953 48.1877 15.6748C48.2918 16.0506 48.3439 16.4691 48.3439 16.9305ZM47.3059 17.0477V16.9305C47.3059 16.6291 47.2743 16.3464 47.211 16.0822C47.1478 15.8143 47.0492 15.5799 46.9152 15.379C46.785 15.1744 46.6176 15.0144 46.4129 14.8991C46.2083 14.78 45.9646 14.7205 45.6818 14.7205C45.4214 14.7205 45.1944 14.7651 45.001 14.8544C44.8112 14.9437 44.6494 15.0646 44.5154 15.2172C44.3815 15.366 44.2717 15.5371 44.1862 15.7306C44.1043 15.9204 44.0429 16.1176 44.002 16.3222V17.7676C44.0764 18.0281 44.1806 18.2736 44.3145 18.5043C44.4485 18.7313 44.6271 18.9154 44.8503 19.0568C45.0735 19.1945 45.3544 19.2633 45.693 19.2633C45.9721 19.2633 46.212 19.2057 46.4129 19.0903C46.6176 18.9713 46.785 18.8094 46.9152 18.6048C47.0492 18.4001 47.1478 18.1657 47.211 17.9016C47.2743 17.6337 47.3059 17.3491 47.3059 17.0477ZM50.6935 15.1223V22.3217H49.6554V13.9615H50.6042L50.6935 15.1223ZM54.762 16.9305V17.0477C54.762 17.4867 54.7099 17.8941 54.6057 18.2699C54.5015 18.642 54.349 18.9657 54.1481 19.241C53.9509 19.5163 53.7072 19.7303 53.417 19.8828C53.1268 20.0353 52.7938 20.1116 52.418 20.1116C52.0348 20.1116 51.6962 20.0484 51.4023 19.9219C51.1083 19.7954 50.8591 19.6112 50.6544 19.3694C50.4498 19.1275 50.2861 18.8373 50.1633 18.4987C50.0443 18.1602 49.9624 17.7788 49.9178 17.3547V16.7296C49.9624 16.2831 50.0461 15.8832 50.1689 15.5297C50.2917 15.1762 50.4535 14.8749 50.6544 14.6256C50.8591 14.3726 51.1065 14.181 51.3967 14.0508C51.6869 13.9168 52.0218 13.8498 52.4013 13.8498C52.7808 13.8498 53.1175 13.9243 53.4114 14.0731C53.7053 14.2182 53.9527 14.4265 54.1537 14.6981C54.3546 14.9697 54.5053 15.2953 54.6057 15.6748C54.7099 16.0506 54.762 16.4691 54.762 16.9305ZM53.7239 17.0477V16.9305C53.7239 16.6291 53.6923 16.3464 53.6291 16.0822C53.5658 15.8143 53.4672 15.5799 53.3333 15.379C53.203 15.1744 53.0356 15.0144 52.831 14.8991C52.6263 14.78 52.3826 14.7205 52.0999 14.7205C51.8394 14.7205 51.6125 14.7651 51.419 14.8544C51.2293 14.9437 51.0674 15.0646 50.9335 15.2172C50.7995 15.366 50.6898 15.5371 50.6042 15.7306C50.5223 15.9204 50.461 16.1176 50.42 16.3222V17.7676C50.4944 18.0281 50.5986 18.2736 50.7326 18.5043C50.8665 18.7313 51.0451 18.9154 51.2683 19.0568C51.4916 19.1945 51.7725 19.2633 52.111 19.2633C52.3901 19.2633 52.6301 19.2057 52.831 19.0903C53.0356 18.9713 53.203 18.8094 53.3333 18.6048C53.4672 18.4001 53.5658 18.1657 53.6291 17.9016C53.6923 17.6337 53.7239 17.3491 53.7239 17.0477ZM63.4012 17.9462C63.4012 17.7565 63.3714 17.5891 63.3119 17.4439C63.2561 17.2951 63.1557 17.1612 63.0105 17.0421C62.8692 16.9231 62.672 16.8096 62.419 16.7017C62.1697 16.5938 61.8534 16.484 61.4702 16.3724C61.0684 16.2534 60.7056 16.1213 60.3819 15.9762C60.0583 15.8273 59.7811 15.6581 59.5504 15.4683C59.3197 15.2786 59.143 15.0609 59.0202 14.8153C58.8974 14.5698 58.836 14.2889 58.836 13.9726C58.836 13.6564 58.9011 13.3643 59.0314 13.0964C59.1616 12.8285 59.3476 12.596 59.5895 12.3988C59.835 12.1979 60.1271 12.0416 60.4657 11.93C60.8042 11.8184 61.1819 11.7626 61.5986 11.7626C62.2088 11.7626 62.7259 11.8798 63.1501 12.1142C63.5779 12.3449 63.9035 12.6481 64.1267 13.0239C64.35 13.3959 64.4616 13.794 64.4616 14.2182H63.39C63.39 13.9131 63.3249 13.6434 63.1947 13.409C63.0645 13.1708 62.8673 12.9848 62.6031 12.8509C62.339 12.7132 62.0041 12.6444 61.5986 12.6444C61.2154 12.6444 60.8991 12.702 60.6498 12.8174C60.4005 12.9327 60.2145 13.089 60.0917 13.2862C59.9727 13.4834 59.9131 13.7085 59.9131 13.9615C59.9131 14.1326 59.9485 14.2889 60.0192 14.4303C60.0936 14.5679 60.2071 14.6963 60.3596 14.8153C60.5159 14.9344 60.7131 15.0442 60.9512 15.1446C61.193 15.2451 61.4814 15.3418 61.8162 15.4348C62.2776 15.565 62.6757 15.7101 63.0105 15.8701C63.3454 16.0301 63.6207 16.2106 63.8365 16.4115C64.056 16.6087 64.2179 16.8338 64.3221 17.0868C64.43 17.336 64.4839 17.6188 64.4839 17.9351C64.4839 18.2662 64.4169 18.5657 64.283 18.8336C64.1491 19.1015 63.9574 19.3303 63.7082 19.52C63.4589 19.7098 63.1594 19.8568 62.8096 19.9609C62.4636 20.0614 62.0767 20.1116 61.6488 20.1116C61.273 20.1116 60.9028 20.0595 60.5382 19.9554C60.1773 19.8512 59.848 19.6949 59.5504 19.4866C59.2565 19.2782 59.0202 19.0215 58.8416 18.7164C58.6667 18.4076 58.5793 18.0504 58.5793 17.6449H59.6508C59.6508 17.9239 59.7048 18.1639 59.8127 18.3648C59.9206 18.562 60.0676 18.7257 60.2536 18.8559C60.4433 18.9861 60.6573 19.0829 60.8954 19.1461C61.1372 19.2057 61.3884 19.2354 61.6488 19.2354C62.0246 19.2354 62.3427 19.1833 62.6031 19.0792C62.8636 18.975 63.0608 18.8262 63.1947 18.6327C63.3324 18.4392 63.4012 18.2104 63.4012 17.9462ZM68.2287 13.9615V14.754H64.9639V13.9615H68.2287ZM66.0689 12.4937H67.1013V18.5043C67.1013 18.709 67.133 18.8634 67.1962 18.9675C67.2595 19.0717 67.3413 19.1405 67.4418 19.174C67.5422 19.2075 67.6501 19.2243 67.7655 19.2243C67.8511 19.2243 67.9403 19.2168 68.0334 19.2019C68.1301 19.1833 68.2026 19.1684 68.251 19.1573L68.2566 20C68.1747 20.026 68.0668 20.0502 67.9329 20.0726C67.8027 20.0986 67.6446 20.1116 67.4585 20.1116C67.2055 20.1116 66.973 20.0614 66.7609 19.9609C66.5488 19.8605 66.3796 19.6931 66.2531 19.4587C66.1303 19.2205 66.0689 18.9006 66.0689 18.4987V12.4937ZM69.0547 17.0477V16.9193C69.0547 16.484 69.1179 16.0803 69.2444 15.7083C69.3709 15.3325 69.5532 15.007 69.7913 14.7316C70.0295 14.4526 70.3178 14.2368 70.6564 14.0842C70.995 13.928 71.3745 13.8498 71.7949 13.8498C72.219 13.8498 72.6004 13.928 72.939 14.0842C73.2813 14.2368 73.5715 14.4526 73.8096 14.7316C74.0514 15.007 74.2356 15.3325 74.3621 15.7083C74.4886 16.0803 74.5519 16.484 74.5519 16.9193V17.0477C74.5519 17.483 74.4886 17.8867 74.3621 18.2588C74.2356 18.6308 74.0514 18.9564 73.8096 19.2354C73.5715 19.5107 73.2831 19.7265 72.9446 19.8828C72.6097 20.0353 72.2302 20.1116 71.806 20.1116C71.3819 20.1116 71.0005 20.0353 70.662 19.8828C70.3234 19.7265 70.0332 19.5107 69.7913 19.2354C69.5532 18.9564 69.3709 18.6308 69.2444 18.2588C69.1179 17.8867 69.0547 17.483 69.0547 17.0477ZM70.0871 16.9193V17.0477C70.0871 17.3491 70.1225 17.6337 70.1932 17.9016C70.2639 18.1657 70.3699 18.4001 70.5113 18.6048C70.6564 18.8094 70.8368 18.9713 71.0526 19.0903C71.2684 19.2057 71.5196 19.2633 71.806 19.2633C72.0888 19.2633 72.3362 19.2057 72.5483 19.0903C72.7641 18.9713 72.9427 18.8094 73.0841 18.6048C73.2255 18.4001 73.3315 18.1657 73.4022 17.9016C73.4766 17.6337 73.5138 17.3491 73.5138 17.0477V16.9193C73.5138 16.6217 73.4766 16.3408 73.4022 16.0766C73.3315 15.8087 73.2236 15.5725 73.0785 15.3679C72.9371 15.1595 72.7585 14.9958 72.5427 14.8767C72.3307 14.7577 72.0814 14.6981 71.7949 14.6981C71.5121 14.6981 71.2628 14.7577 71.047 14.8767C70.835 14.9958 70.6564 15.1595 70.5113 15.3679C70.3699 15.5725 70.2639 15.8087 70.1932 16.0766C70.1225 16.3408 70.0871 16.6217 70.0871 16.9193ZM76.8791 14.9102V20H75.8466V13.9615H76.8512L76.8791 14.9102ZM78.7654 13.928L78.7599 14.8879C78.6743 14.8693 78.5924 14.8581 78.5143 14.8544C78.4399 14.847 78.3543 14.8432 78.2576 14.8432C78.0195 14.8432 77.8092 14.8805 77.6269 14.9549C77.4446 15.0293 77.2902 15.1335 77.1637 15.2674C77.0372 15.4013 76.9368 15.5613 76.8623 15.7474C76.7917 15.9297 76.7451 16.1306 76.7228 16.3501L76.4326 16.5175C76.4326 16.1529 76.468 15.8106 76.5387 15.4906C76.6131 15.1707 76.7265 14.8879 76.8791 14.6423C77.0316 14.3931 77.2251 14.1996 77.4595 14.0619C77.6976 13.9205 77.9804 13.8498 78.3078 13.8498C78.3822 13.8498 78.4678 13.8591 78.5645 13.8778C78.6613 13.8926 78.7282 13.9094 78.7654 13.928ZM82.114 20.1116C81.6935 20.1116 81.3122 20.0409 80.9699 19.8995C80.6313 19.7544 80.3392 19.5517 80.0937 19.2912C79.8518 19.0308 79.6658 18.722 79.5356 18.3648C79.4054 18.0076 79.3403 17.617 79.3403 17.1928V16.9584C79.3403 16.4673 79.4128 16.0301 79.5579 15.6469C79.703 15.26 79.9002 14.9325 80.1495 14.6647C80.3988 14.3968 80.6815 14.194 80.9978 14.0563C81.314 13.9187 81.6415 13.8498 81.98 13.8498C82.4116 13.8498 82.7837 13.9243 83.0962 14.0731C83.4125 14.2219 83.671 14.4303 83.872 14.6981C84.0729 14.9623 84.2217 15.2748 84.3184 15.6357C84.4152 15.9929 84.4635 16.3836 84.4635 16.8077V17.2709H79.9542V16.4282H83.4311V16.3501C83.4162 16.0822 83.3604 15.8218 83.2636 15.5688C83.1706 15.3158 83.0218 15.1074 82.8172 14.9437C82.6125 14.78 82.3335 14.6981 81.98 14.6981C81.7456 14.6981 81.5298 14.7484 81.3326 14.8488C81.1355 14.9456 80.9662 15.0907 80.8248 15.2841C80.6834 15.4776 80.5736 15.7139 80.4955 15.9929C80.4174 16.272 80.3783 16.5938 80.3783 16.9584V17.1928C80.3783 17.4793 80.4174 17.749 80.4955 18.002C80.5774 18.2513 80.6946 18.4708 80.8471 18.6606C81.0034 18.8503 81.1913 18.9992 81.4108 19.1071C81.634 19.215 81.887 19.2689 82.1698 19.2689C82.5344 19.2689 82.8432 19.1945 83.0962 19.0457C83.3492 18.8968 83.5706 18.6978 83.7603 18.4485L84.3854 18.9452C84.2552 19.1424 84.0896 19.3303 83.8887 19.5089C83.6878 19.6875 83.4404 19.8326 83.1464 19.9442C82.8562 20.0558 82.5121 20.1116 82.114 20.1116Z" fill="#4097E3"/>
</svg>
