<svg width="15" height="15" viewBox="0 0 15 15" fill="none" xmlns="http://www.w3.org/2000/svg">
<path d="M9.80219 0H5.19781C0.996063 0 0 0.996063 0 5.19781V9.80219C0 14.0039 0.996063 15 5.19781 15H9.80219C14.0039 15 15 14.0039 15 9.80219V5.19781C15 0.996063 13.9941 0 9.80219 0ZM12.1093 10.7003H11.0204C10.608 10.7003 10.4809 10.3731 9.73891 9.62126C9.0944 8.99644 8.80894 8.91347 8.65004 8.91347C8.42552 8.91347 8.36177 8.97675 8.36177 9.28471V10.2686C8.36177 10.5325 8.2788 10.6909 7.58039 10.6909C6.42542 10.6909 5.1439 9.9925 4.24534 8.69129C2.89022 6.78448 2.51945 5.35624 2.51945 5.06094C2.51945 4.90203 2.58273 4.75345 2.88788 4.75345H3.97909C4.25518 4.75345 4.36018 4.88047 4.46752 5.17578C5.00703 6.73338 5.9056 8.09787 6.27637 8.09787C6.41324 8.09787 6.47652 8.03459 6.47652 7.68539V6.07668C6.4348 5.33468 6.04434 5.27093 6.04434 5.0075C6.04434 4.88047 6.14934 4.75345 6.31762 4.75345H8.03366C8.26568 4.75345 8.35099 4.88047 8.35099 5.15375V7.32399C8.35099 7.55836 8.45599 7.64132 8.51927 7.64132C8.65614 7.64132 8.77332 7.55836 9.02691 7.3043C9.81063 6.42542 10.3722 5.07031 10.3722 5.07031C10.4453 4.91141 10.5723 4.76282 10.8484 4.76282H11.9396C12.2668 4.76282 12.3399 4.9311 12.2668 5.16546C12.1299 5.80013 10.7945 7.68492 10.7945 7.68492C10.6797 7.87522 10.6356 7.95819 10.7945 8.17053C10.9117 8.32943 11.2928 8.65895 11.5464 8.95425C12.0127 9.48392 12.3713 9.92828 12.467 10.2358C12.5743 10.5409 12.4159 10.6998 12.1079 10.6998L12.1093 10.7003Z" fill="white"/>
</svg>
