<svg id="Шар_1" data-name="Шар 1" xmlns="http://www.w3.org/2000/svg" width="53" height="53" viewBox="0 0 53 53"><defs><style>.cls-1{fill:#fff;}</style></defs><path class="cls-1" d="M46,8.36c-.15.36-.31.73-.49,1.11q-4.57,9.39-19.93,15.35a1.34,1.34,0,0,1-.27.13c-1.2.49-2.35.92-3.48,1.31a81.4,81.4,0,0,0-4.12,7.34q-2.24,4.59-4.28,9.56C12.27,46,11.78,47.69,12,48.28a4.08,4.08,0,0,0,.44.28q1.27.09,3.3-4.05a52.67,52.67,0,0,0,2.81-6.95c.74-2.31,1.43-4.81,2.07-7.47a3.31,3.31,0,0,1,1.1-1.28,6.61,6.61,0,0,1,1.8-1,1.94,1.94,0,0,1,1.44-.13c.6.29,1.29.67,2.1,1.13a10.09,10.09,0,0,0,.91.5A30.91,30.91,0,0,0,32,30.88l.8.28a8.58,8.58,0,0,1,.83.35c.82.4.94,1.23.33,2.48-1.14,2.34-3.56,2.61-7.23.82a19.34,19.34,0,0,1-2.88-1.9c-.51,2-1.19,4.23-2,6.59a58.86,58.86,0,0,1-2.33,5.72,19.54,19.54,0,0,1-3.46,5.19A26.5,26.5,0,0,0,46,8.36Z"/><path class="cls-1" d="M37.41,8.12a56,56,0,0,0-5.84,6.05Q28.23,18.09,25,22.65a36.13,36.13,0,0,0,9.59-5.77,23.82,23.82,0,0,0,6-7.25c.88-1.81,1-2.9.21-3.26C40.18,6.11,39.08,6.7,37.41,8.12Z"/><path class="cls-1" d="M14.2,33.8c.45-.93.92-1.84,1.4-2.75-3.31.63-6.56,1-10,1.42H5.32a2.17,2.17,0,0,1-.25-4.33,97.43,97.43,0,0,0,13.48-2.23,95.9,95.9,0,0,1,5.95-8.56A57.27,57.27,0,0,1,36.67,5.28a21.9,21.9,0,0,1,1.95-1.22A26.5,26.5,0,0,0,9.14,46.78,65.15,65.15,0,0,1,14.2,33.8Z"/></svg>